# xmcd
#
# Track frame offsets: 
#        150
#        17805
#        31942
#        46917
#        59595
#        81592
#        111075
#        132807
#        145672
#        159520
#        174932
#        189927
#        204762
#        220947
#        236612
#        252120
#
# Disc length: 3609 seconds
#
# Revision: 3
# Processed by: cddbd v1.5.1PL0 Copyright (c) Steve Scherf et al.
# Submitted via: ExactAudioCopy v0.95a4
#
DISCID=d20e1710
DTITLE=Various Artist - Black Gold CD 4
DYEAR=1993
DGENRE=R&B
TTITLE0=Candi Staton - Suspicious Minds
TTITLE1=The Chi-Lites - Too Good To Be Forgotten
TTITLE2=Donnie Elbert - Where Did Our Love Go
TTITLE3=Fontella Bass - Rescue Me
TTITLE4=The Tramps - Zing Went The Strings Of My Heart
TTITLE5=Joe Tex - Ain't Gonna Bump No More
TTITLE6=Shirley and Company - Shame, Shame, Shame
TTITLE7=The Dells - Oh' What A Night
TTITLE8=Moments and Whatnauts - Dolly My Love
TTITLE9=Archie Bell and The Drells - Strategy
TTITLE10=The O' Jays - Message In Our Music
TTITLE11=Lou Rawls - Groovy People
TTITLE12=Frantique - Strutt Your Funky Stuff
TTITLE13=The Stylistics - Hurry Up This Way Again
TTITLE14=Billy Paul - Bring The Family Back
TTITLE15=Dexter Wansel - Disco Lights
EXTD=
EXTT0=
EXTT1=
EXTT2=
EXTT3=
EXTT4=
EXTT5=
EXTT6=
EXTT7=
EXTT8=
EXTT9=
EXTT10=
EXTT11=
EXTT12=
EXTT13=
EXTT14=
EXTT15=
PLAYORDER=
